<?xml version="1.0" standalone="no"?><!DOCTYPE svg PUBLIC "-//W3C//DTD SVG 1.1//EN" "http://www.w3.org/Graphics/SVG/1.1/DTD/svg11.dtd"><svg t="1591013942619" class="icon" viewBox="0 0 1024 1024" version="1.1" xmlns="http://www.w3.org/2000/svg" p-id="10198" xmlns:xlink="http://www.w3.org/1999/xlink" width="48" height="48"><defs><style type="text/css"></style></defs><path d="M512 62C263 62 62 263 62 512s201 450 450 450 450-201 450-450S761 62 512 62m189 639c-12 12-33 12-45 0L512 557 368 701c-12 12-33 12-45 0s-12-33 0-45l144-144-144-144c-12-12-12-33 0-45s33-12 45 0l144 144 144-144c12-12 33-12 45 0s12 33 0 45L557 512l144 144c15 12 15 33 0 45m0 0z" fill="#d81e06" p-id="10199" data-spm-anchor-id="a313x.7781069.0.i19" class=""></path></svg>