<?xml version="1.0" standalone="no"?><!DOCTYPE svg PUBLIC "-//W3C//DTD SVG 1.1//EN" "http://www.w3.org/Graphics/SVG/1.1/DTD/svg11.dtd"><svg t="1590982894614" class="icon" viewBox="0 0 1024 1024" version="1.1" xmlns="http://www.w3.org/2000/svg" p-id="4505" xmlns:xlink="http://www.w3.org/1999/xlink" width="200" height="200"><defs><style type="text/css"></style></defs><path d="M0 512c0 282.965333 229.034667 512 512 512s512-229.034667 512-512-229.034667-512-512-512-512 229.034667-512 512z" fill="#DCDCDC" p-id="4506"></path><path d="M565.248 512l211.797333 211.797333a38.741333 38.741333 0 0 1 0 53.248 38.741333 38.741333 0 0 1-53.248 0L512 565.248 300.202667 777.045333a38.741333 38.741333 0 0 1-53.248 0 38.741333 38.741333 0 0 1 0-53.248L458.752 512 246.954667 300.202667a38.741333 38.741333 0 0 1 0-53.248 38.741333 38.741333 0 0 1 53.248 0L512 458.752l211.797333-211.797333a38.741333 38.741333 0 0 1 53.248 0 38.741333 38.741333 0 0 1 0 53.248L565.248 512z" fill="#FFFFFF" p-id="4507"></path></svg>